<svg width="35" height="26" viewBox="0 0 35 26" fill="none" xmlns="http://www.w3.org/2000/svg">
<path d="M31.7188 0H3.28125C1.46904 0 0 1.45505 0 3.25V22.75C0 24.5449 1.46904 26 3.28125 26H31.7188C33.531 26 35 24.5449 35 22.75V3.25C35 1.45505 33.531 0 31.7188 0ZM31.7188 3.25V6.01284C30.186 7.24913 27.7424 9.1715 22.5185 13.2231C21.3672 14.12 19.0868 16.2748 17.5 16.2497C15.9135 16.2751 13.6323 14.1197 12.4815 13.2231C7.2584 9.17211 4.81421 7.24933 3.28125 6.01284V3.25H31.7188ZM3.28125 22.75V10.1832C4.84764 11.4189 7.06897 13.153 10.4547 15.779C11.9489 16.9439 14.5655 19.5156 17.5 19.4999C20.4201 19.5156 23.0035 16.9813 24.5446 15.7796C27.9303 13.1536 30.1523 11.4191 31.7188 10.1833V22.75H3.28125Z" fill="#A4A4A4"/>
</svg>
