<svg width="19" height="18" viewBox="0 0 19 18" fill="none" xmlns="http://www.w3.org/2000/svg">
<path d="M4.25295 18H0.313839V5.98232H4.25295V18ZM2.28127 4.343C1.02167 4.343 0 3.35458 0 2.16125C9.01566e-09 1.58805 0.240348 1.03833 0.668169 0.633016C1.09599 0.227703 1.67624 0 2.28127 0C2.8863 0 3.46655 0.227703 3.89438 0.633016C4.3222 1.03833 4.56254 1.58805 4.56254 2.16125C4.56254 3.35458 3.54045 4.343 2.28127 4.343ZM18.9958 18H15.0651V12.1499C15.0651 10.7556 15.0354 8.96766 13.0171 8.96766C10.9691 8.96766 10.6553 10.4824 10.6553 12.0494V18H6.7204V5.98232H10.4983V7.62164H10.5535C11.0794 6.67743 12.364 5.68098 14.2805 5.68098C18.2671 5.68098 19 8.16808 19 11.3985V18H18.9958Z" fill="white"/>
</svg>
